<?xml version="1.0" standalone="yes"?>
<svg xmlns="http://www.w3.org/2000/svg" width="200" height="200">
<path style="fill:#fafdfe; stroke:none;" d="M0 0L0 200L200 200L200 0L0 0z"/>
<path style="fill:#96a6bc; stroke:none;" d="M96 8L96 9L97 11L98 11L96 8z"/>
<path style="fill:#345371; stroke:none;" d="M89 38L90 38C90 27.5571 88.6545 16.9441 98 10C87.2433 7.69255 89 32.1273 89 38z"/>
<path style="fill:#fafdfe; stroke:none;" d="M96 10C90.796 17.8988 90 24.7449 90 34L91 34C91.0061 24.8613 93.3206 18.7732 98 11L96 10z"/>
<path style="fill:#345371; stroke:none;" d="M98 10L103.66 25L103.148 39L107 51L101 49C97.8013 52.2533 95.2753 52.0774 92 49L86 51L91 40C86.1472 43.533 84.2846 47.1263 86 53L101 53L98 60L96 60L93 54L92 54C92.0898 57.7155 95.0369 68.523 99.9907 61.8326C102.508 58.4332 101.713 53.9393 102 50L108 53C109.128 46.5134 104.98 43.9262 104.318 38C103.126 27.3281 107.244 18.5413 98 10z"/>
<path style="fill:#96a6bc; stroke:none;" d="M93 11L94 12L93 11M94 12L95 13L94 12z"/>
<path style="fill:#5dafcf; stroke:none;" d="M94 17L95 17L97 13L101 16L99 12L94 17M100 12L101 13L100 12z"/>
<path style="fill:#96a6bc; stroke:none;" d="M93 13L94 14L93 13z"/>
<path style="fill:#30b7e4; stroke:none;" d="M97 13L92 24L95 21C99.3776 23.1971 101.99 25.0393 103 30L93 28L89 50L90 50L91 48L92 48C94.3124 51.6681 98.4309 53.0707 101 49L108 48C101.099 38.5538 103.91 33.7701 104 23L102 24C102.371 18.8222 101.193 16.1338 97 13z"/>
<path style="fill:#96a6bc; stroke:none;" d="M101 13L102 14L101 13M91 14L92 15L91 14M92 15L93 16L92 15z"/>
<path style="fill:#5dafcf; stroke:none;" d="M102 15L103 16L102 15z"/>
<path style="fill:#96a6bc; stroke:none;" d="M90 16L91 17L90 16M91 17L92 18L91 17z"/>
<path style="fill:#5dafcf; stroke:none;" d="M103 17L104 18L103 17M93.3333 18.6667L93.6667 19.3333L93.3333 18.6667z"/>
<path style="fill:#96a6bc; stroke:none;" d="M89 19L90 20L89 19M104 19L105 20L104 19M90.3333 20.6667L90.6667 21.3333L90.3333 20.6667z"/>
<path style="fill:#5dafcf; stroke:none;" d="M92.3333 20.6667L92.6667 21.3333L92.3333 20.6667M102 20L102 24L103 24L102 20M104 20L105 21L104 20M95 21L96 22L95 21z"/>
<path style="fill:#96a6bc; stroke:none;" d="M105 21L106 22L105 21z"/>
<path style="fill:#345371; stroke:none;" d="M95.3032 23.0857C92.1808 24.9378 94.1437 30.1999 97.7006 28.5926C101.286 26.9724 99.0465 20.8654 95.3032 23.0857z"/>
<path style="fill:#5dafcf; stroke:none;" d="M105 22L104 41L105 41L105 22z"/>
<path style="fill:#96a6bc; stroke:none;" d="M88 23L88 32L89 32L88 23z"/>
<path style="fill:#5dafcf; stroke:none;" d="M96 23L95 28L96 28L96 23M100 23L101 30C103.608 27.6182 102.154 25.2986 100 23z"/>
<path style="fill:#96a6bc; stroke:none;" d="M91.3333 24.6667L91.6667 25.3333L91.3333 24.6667z"/>
<path style="fill:#5dafcf; stroke:none;" d="M92 24L92 34L93 34L92 24z"/>
<path style="fill:#96a6bc; stroke:none;" d="M97.6667 24.3333L98.3333 24.6667L97.6667 24.3333z"/>
<path style="fill:#fafdfe; stroke:none;" d="M96 28L99 25L96 28z"/>
<path style="fill:#30b7e4; stroke:none;" d="M94 26L95 27L94 26z"/>
<path style="fill:#96a6bc; stroke:none;" d="M100 26L101 27L100 26z"/>
<path style="fill:#fafdfe; stroke:none;" d="M101 26L98 29L98 30L101 26z"/>
<path style="fill:#96a6bc; stroke:none;" d="M98 27L99 28L98 27M99 28L100 29L99 28z"/>
<path style="fill:#5dafcf; stroke:none;" d="M97 29L100 31L100 30L97 29z"/>
<path style="fill:#96a6bc; stroke:none;" d="M91 31L89 41L90 41L91 31z"/>
<path style="fill:#5dafcf; stroke:none;" d="M102 33L102 41L103 41L102 33z"/>
<path style="fill:#30b7e4; stroke:none;" d="M104 34L104 39L105 39L104 34z"/>
<path style="fill:#fafdfe; stroke:none;" d="M91 35L86 49L87 49C90.0337 44.4854 93.328 40.5625 91 35z"/>
<path style="fill:#96a6bc; stroke:none;" d="M63.6667 37.3333L64.3333 37.6667L63.6667 37.3333M130 38L130 39L134 38L130 38M61 38L63 40L61 38z"/>
<path style="fill:#345371; stroke:none;" d="M62 38L62 39C67.7441 41.8069 69.9154 50.6311 77 49C77 53.5607 78.553 61.6387 75.9722 65.5849C73.418 69.4904 66.6221 71.3362 63 74.3287C52.1318 83.308 45.1176 95.7944 45 110L46 110C46.2841 96.3082 53.4833 84.014 64 75.4676C67.6539 72.4982 74.447 70.5682 76.9722 66.6096C79.7686 62.2259 78 53.0558 78 48L62 38M119 48C118.28 52.5258 117.492 62.6345 120.028 66.6096C122.387 70.3074 128.556 72.0262 132 74.6806C138.68 79.8295 143.655 86.3988 147.218 94C150.924 101.904 151.944 111.367 150.7 120C150.159 123.756 147.528 128.22 148.121 132C148.998 137.589 157.235 143.778 162 146L169 136L169 135C164.107 135.841 162.78 139.73 161 144C157.267 141.156 151.086 137.067 149.546 132.424C148.378 128.906 151.436 123.63 151.826 120C152.663 112.216 152.359 103.361 149.533 96C146.137 87.1513 140.527 79.329 133 73.5293C129.537 70.8611 123.414 69.3501 121.028 65.6096C118.467 61.5952 120 53.6107 120 49C127.361 50.0627 127.018 41.0348 133.174 39.9938C145.298 37.9436 138.19 52.1587 139.697 56.8264C140.902 60.5589 146.213 63.4408 149 66L150 66C153.72 63.3514 168.987 55.7104 167.234 67.5756C166.719 71.0616 161.204 75.2936 159 78L159 79C165.786 88.5398 167.515 91.3179 180 89L180.357 100.351L170.028 106.499L169 120L182 124C181.637 132.333 179.572 135.97 171 136L171 137L181 137C181.728 133.473 184.205 127.826 181.968 124.499C178.617 119.515 170.595 121.533 170.063 113.985C169.334 103.637 182.053 106.599 182.762 98.892C184.213 83.1105 167.261 93.8428 162.859 81.9992C160.185 74.8068 171.387 71.8549 168.458 65.0008C163.655 53.7628 157.409 62.5721 150 62.5964C144.042 62.616 140.386 56.1018 141.599 51C142.242 48.2939 143.154 45.6469 144 43C140.544 40.9831 135.242 37.0739 131.093 39.071C125.943 41.5502 125.377 47.3888 119 48z"/>
<path style="fill:#96a6bc; stroke:none;" d="M135 38L136 39L135 38M59 39L63 43L59 39z"/>
<path style="fill:#345371; stroke:none;" d="M60.6667 39.3333L61.3333 39.6667L60.6667 39.3333z"/>
<path style="fill:#fafdfe; stroke:none;" d="M61 40L61 41L65 40L61 40z"/>
<path style="fill:#5dafcf; stroke:none;" d="M66 39L68 41L66 39z"/>
<path style="fill:#96a6bc; stroke:none;" d="M67 39L68 40L67 39z"/>
<path style="fill:#5dafcf; stroke:none;" d="M92 39L88 50L89 50L92 39z"/>
<path style="fill:#96a6bc; stroke:none;" d="M128 39L126 42L128 39z"/>
<path style="fill:#5dafcf; stroke:none;" d="M129 39L130 40L129 39M131 39L139 45C138.162 49.0506 135.245 54.8433 136.644 58.9105C138.075 63.0755 145.497 69.5472 149 65C135.134 63.623 143.048 53.5034 140.888 46.0154C139.78 42.1732 134.293 40.3782 131 39z"/>
<path style="fill:#fafdfe; stroke:none;" d="M132 39L132 40L142 45L132 39z"/>
<path style="fill:#96a6bc; stroke:none;" d="M134 39L135 40L134 39M137 39L138 40L137 39M57 40L59 42L57 40z"/>
<path style="fill:#345371; stroke:none;" d="M58.6667 40.3333L59.3333 40.6667L58.6667 40.3333z"/>
<path style="fill:#5dafcf; stroke:none;" d="M62 41L62 42L67 42L62 41z"/>
<path style="fill:#96a6bc; stroke:none;" d="M105 40L106 41L105 40z"/>
<path style="fill:#5dafcf; stroke:none;" d="M128 40L129 41L128 40z"/>
<path style="fill:#96a6bc; stroke:none;" d="M136 40L137 41L136 40M139 40L140 41L139 40M55 41L57 43L55 41z"/>
<path style="fill:#345371; stroke:none;" d="M56.6667 41.3333L57.3333 41.6667L56.6667 41.3333z"/>
<path style="fill:#fafdfe; stroke:none;" d="M55 43L55 44L61 42L55 43z"/>
<path style="fill:#96a6bc; stroke:none;" d="M64 41L65 42L64 41z"/>
<path style="fill:#fafdfe; stroke:none;" d="M19 92L17 102L31 108L31 122L17 127C19.7072 140.893 31.7483 130.456 36 143C51.7672 135.647 43.8538 126.071 44.0185 113C44.1453 102.942 47.4393 93.1902 53.2091 85C56.9235 79.7274 61.5763 75.0627 67 71.5478C69.9418 69.6414 74.5118 68.4361 75.6968 64.787C77.9885 57.7298 73.936 43.0722 64.9066 42.2408C52.6536 41.1125 61.7485 56.5902 56.848 61.713C54.6568 64.0036 51.4062 66.9055 48 66.3194C43.1553 65.4858 39.1546 59.4481 34.4838 64.1914C27.6345 71.1469 37.3291 74.1338 38.4244 80.5756C40.5804 93.2565 26.4422 92.0049 19 92z"/>
<path style="fill:#5dafcf; stroke:none;" d="M68 41L69 42L68 41M127 41L122 49L127 41z"/>
<path style="fill:#96a6bc; stroke:none;" d="M130 41L129 43L130 41M138 41L139 42L138 41M141 41L142 42L141 41M52 43L52 44L56 45L54 42L52 43z"/>
<path style="fill:#345371; stroke:none;" d="M54.6667 42.3333L55.3333 42.6667L54.6667 42.3333z"/>
<path style="fill:#5dafcf; stroke:none;" d="M53 45L53 46C61.3036 55.4194 55.8941 60.6348 48 67C65.7484 64.7433 52.2803 49.1125 62 43L53 45z"/>
<path style="fill:#96a6bc; stroke:none;" d="M69 42L71 44L69 42M105 42L106 43L105 42z"/>
<path style="fill:#fafdfe; stroke:none;" d="M160 143C162.758 135.061 169.623 134.244 177 136C177.686 133.554 179.312 129.931 177.882 127.499C176.028 124.347 170.997 124.24 168.318 122.006C162.541 117.191 166.355 107.327 172.003 104.67C174.265 103.605 176.636 102.8 179 102L177 92C169.446 92.0008 154.881 92.902 157.665 80C158.976 73.9235 168.341 70.8666 161.655 64.1914C156.514 59.0591 152.374 66.4344 147 66.4313C142.93 66.429 138.632 61.7281 135 60L139 45C127.872 40.475 116.993 51.9364 120.318 63.8951C121.466 68.0253 126.732 69.5818 130 71.6991C135.757 75.4283 140.573 80.3055 144.402 86C149.557 93.667 152.921 103.701 152.921 113C152.921 126.96 146.122 133.224 160 143z"/>
<path style="fill:#96a6bc; stroke:none;" d="M133 42L134 43L133 42M140 42L141 43L140 42M143 42L144 43L143 42z"/>
<path style="fill:#345371; stroke:none;" d="M53.3333 43.6667L53.6667 44.3333L53.3333 43.6667z"/>
<path style="fill:#5dafcf; stroke:none;" d="M69 43L70 44L69 43z"/>
<path style="fill:#96a6bc; stroke:none;" d="M91 43L92 44L91 43z"/>
<path style="fill:#5dafcf; stroke:none;" d="M104 43L105 44L104 43z"/>
<path style="fill:#96a6bc; stroke:none;" d="M106 43L107 44L106 43z"/>
<path style="fill:#5dafcf; stroke:none;" d="M128 43L129 44L128 43z"/>
<path style="fill:#96a6bc; stroke:none;" d="M139 43L140 44L139 43M58 44L59 45L58 44M68 44L69 45L68 44z"/>
<path style="fill:#5dafcf; stroke:none;" d="M70 44L71 45L70 44z"/>
<path style="fill:#96a6bc; stroke:none;" d="M90 44L91 45L90 44z"/>
<path style="fill:#5dafcf; stroke:none;" d="M105 44L106 45L105 44z"/>
<path style="fill:#96a6bc; stroke:none;" d="M107 44L108 45L107 44M124 44L125 45L124 44M143 44L144 45L143 44M71 45L72 46L71 45z"/>
<path style="fill:#5dafcf; stroke:none;" d="M106 45L106 47L108 47L106 45z"/>
<path style="fill:#96a6bc; stroke:none;" d="M108 45L109 46L108 45M127 45L128 46L127 45M141 45L142 46L141 45M53 46L54 47L53 46z"/>
<path style="fill:#345371; stroke:none;" d="M54 46C54.4201 48.8553 55.8251 51.9574 55.7832 54.8264C55.5653 69.7225 34.735 54.5435 29.0517 64.0046C24.1178 72.2182 39.0547 76.6443 32.0332 85.8519C26.9665 92.4959 16.182 84.7308 15 95L16 95C18.6893 86.1411 29.3993 93.4979 33.7369 85.9414C39.36 76.1454 24.8869 69.3658 32.473 62.2562C36.974 58.0378 41.3041 64.2334 46 64.7168C57.3597 65.8862 58.2946 52.8247 54 46z"/>
<path style="fill:#96a6bc; stroke:none;" d="M72 46L73 47L72 46M84 46L85 47L84 46M126 46L127 47L126 46M70 47L71 48L70 47z"/>
<path style="fill:#5dafcf; stroke:none;" d="M72 47L73 48L72 47z"/>
<path style="fill:#96a6bc; stroke:none;" d="M87 47L86 51L87 51L87 47z"/>
<path style="fill:#5dafcf; stroke:none;" d="M109 47L108 53L109 47z"/>
<path style="fill:#96a6bc; stroke:none;" d="M122 47L123 48L122 47M142.333 47.6667L142.667 48.3333L142.333 47.6667M71 48L72 49L71 48M73 48L73 49L76 49L73 48z"/>
<path style="fill:#5dafcf; stroke:none;" d="M90.6667 48.3333L91.3333 48.6667L90.6667 48.3333z"/>
<path style="fill:#96a6bc; stroke:none;" d="M118 48L115 52L116 52L118 48M121 48L122 49L121 48M140 48L141 49L140 48M54 49L55 50L54 49M76.3333 49.6667L76.6667 50.3333L76.3333 49.6667z"/>
<path style="fill:#5dafcf; stroke:none;" d="M106 49L105 51L107 51L106 49z"/>
<path style="fill:#96a6bc; stroke:none;" d="M120 49L121 50L120 49M124 49L125 50L124 49M73 50L74 51L73 50z"/>
<path style="fill:#5dafcf; stroke:none;" d="M74 50L77 52L77 51L74 50z"/>
<path style="fill:#fafdfe; stroke:none;" d="M75 50L76 51L75 50z"/>
<path style="fill:#5dafcf; stroke:none;" d="M78 50C78.8909 54.799 80.5269 62.3675 77.9722 66.8704C74.5766 72.8555 64.2483 75.892 59.375 81.3248C51.7433 89.8328 47.2357 100.581 47 112L46 112L46 110L45 110C46.099 123.659 54.8134 140.719 36 146L38 149L39 149L52 136C48.3961 114.798 45.5464 98.1979 62.3441 81.0394C66.955 76.3294 74.2093 74.1715 78.3966 69.3657C81.4113 65.9058 81.3631 52.9388 78 50z"/>
<path style="fill:#96a6bc; stroke:none;" d="M80.3333 50.6667L80.6667 51.3333L80.3333 50.6667z"/>
<path style="fill:#fafdfe; stroke:none;" d="M87 50L88 51L87 50z"/>
<path style="fill:#5dafcf; stroke:none;" d="M93 50L95 52L93 50z"/>
<path style="fill:#30b7e4; stroke:none;" d="M102 50L103 51L102 50M108.333 50.6667L108.667 51.3333L108.333 50.6667z"/>
<path style="fill:#5dafcf; stroke:none;" d="M116 50L116 70C133.155 75.8604 147.503 93.5344 147.985 112C148.165 118.898 143.87 127.721 144.978 133.985C145.747 138.332 156.35 150.04 160 145L145 135C159.737 120.263 145.972 87.8102 133 77C129.586 74.1553 119.902 71.17 118 68C116.55 65.5839 116.181 52.2953 119 53L118 50L116 50M120 52L123 50L120 52M88 54L92 52L88 54z"/>
<path style="fill:#96a6bc; stroke:none;" d="M93 51L94 52L93 51z"/>
<path style="fill:#5dafcf; stroke:none;" d="M96 51L97 52L96 51M101 53L104 51L101 53z"/>
<path style="fill:#96a6bc; stroke:none;" d="M104 51L105 52L104 51M137 51L138 52L137 51M141 51L142 52L141 51M55.3333 52.6667L55.6667 53.3333L55.3333 52.6667M58 52L59 53L58 52M76 52L77 53L76 52z"/>
<path style="fill:#fafdfe; stroke:none;" d="M78 52C78 56.1574 79.2916 62.9736 76.9722 66.6096C74.5862 70.3501 68.4627 71.8613 65 74.5293C55.8128 81.6082 48.0389 92.1757 47 104L48 104C49.5988 94.7149 55.1968 85.5714 62.0394 79.1736C71.0342 70.7634 84.4252 67.3121 78 52z"/>
<path style="fill:#96a6bc; stroke:none;" d="M85 52L86 53L85 52M87 52L88 53L87 52M90 52L91 53L90 52z"/>
<path style="fill:#5dafcf; stroke:none;" d="M92 52L93 53L92 52z"/>
<path style="fill:#fafdfe; stroke:none;" d="M117 52L117 59L118 59L117 52z"/>
<path style="fill:#96a6bc; stroke:none;" d="M120 52L121 53L120 52M80 53L80 59L81 59L80 53M92 53L93 55L94 55L95 53L92 53z"/>
<path style="fill:#5dafcf; stroke:none;" d="M99.6667 53.3333L100.333 53.6667L99.6667 53.3333z"/>
<path style="fill:#96a6bc; stroke:none;" d="M102 53L103 54L102 53M108.667 53.3333L109.333 53.6667L108.667 53.3333M118 53L118 69L119 69L118 53M91 54L91 58L92 58L91 54z"/>
<path style="fill:#fafdfe; stroke:none;" d="M94 54L96 59L98 59L100 55L94 54z"/>
<path style="fill:#96a6bc; stroke:none;" d="M97 54L97 55L100 55L97 54M136 54L137 55L136 54M140 54L141 55L140 54M59 55L60 56L59 55M102 55L103 59L104 59L102 55M115 55L115 68L116 68L115 55M138 55L138 58L139 58L138 55M56 56L57 57L56 56z"/>
<path style="fill:#5dafcf; stroke:none;" d="M94 56L95 57L94 56z"/>
<path style="fill:#96a6bc; stroke:none;" d="M99 56L100 57L99 56M34 57L35 58L34 57M100.333 57.6667L100.667 58.3333L100.333 57.6667z"/>
<path style="fill:#5dafcf; stroke:none;" d="M102 57L98 66C101.328 63.9571 103.328 60.8726 102 57z"/>
<path style="fill:#96a6bc; stroke:none;" d="M161.667 57.3333L162.333 57.6667L161.667 57.3333M33 58L34 59L33 58M36 58L37 59L36 58M54 58L55 59L54 58z"/>
<path style="fill:#fafdfe; stroke:none;" d="M49 66L59 59C54.5704 58.6363 51.4128 62.6481 49 66z"/>
<path style="fill:#96a6bc; stroke:none;" d="M93 58L95 61L93 58z"/>
<path style="fill:#5dafcf; stroke:none;" d="M95 58L96 59L95 58z"/>
<path style="fill:#96a6bc; stroke:none;" d="M135.333 58.6667L135.667 59.3333L135.333 58.6667z"/>
<path style="fill:#fafdfe; stroke:none;" d="M138 58L147 65L138 58z"/>
<path style="fill:#96a6bc; stroke:none;" d="M142 58L143 59L142 58M159 58L160 59L159 58M163 58L164 59L163 58M32 59L33 60L32 59M32 62L36 61L36 60L32 62M38 59L39 60L38 59M53 59L54 60L53 59M55 59L56 60L55 59M76 59L76 67L77 67L76 59z"/>
<path style="fill:#5dafcf; stroke:none;" d="M94 59L95 60L94 59z"/>
<path style="fill:#96a6bc; stroke:none;" d="M96.6667 59.3333L97.3333 59.6667L96.6667 59.3333z"/>
<path style="fill:#fafdfe; stroke:none;" d="M99 59L100 60L99 59z"/>
<path style="fill:#96a6bc; stroke:none;" d="M141 59L142 60L141 59M143 59L144 60L143 59M157 59L158 60L157 59M160 59L161 60L160 59z"/>
<path style="fill:#fafdfe; stroke:none;" d="M161 59L168 68L161 59z"/>
<path style="fill:#96a6bc; stroke:none;" d="M162 59L163 60L162 59M164 59L165 60L164 59M31 60L32 61L31 60z"/>
<path style="fill:#fafdfe; stroke:none;" d="M34 60L28 68L34 60z"/>
<path style="fill:#5dafcf; stroke:none;" d="M30 71L31 71L38 60C33.4526 62.1656 29.8148 65.7887 30 71z"/>
<path style="fill:#96a6bc; stroke:none;" d="M40 60L41 61L40 60M56 60L57 61L56 60M92 60L93 61L92 60M98.6667 60.3333L99.3333 60.6667L98.6667 60.3333M136 60L137 61L136 60M142 60L143 61L142 60M155 60L156 61L155 60z"/>
<path style="fill:#5dafcf; stroke:none;" d="M159 60L165 71L166 71C166.526 65.8474 163.526 62.212 159 60z"/>
<path style="fill:#96a6bc; stroke:none;" d="M163 60L164 61L163 60M38 61L39 62L38 61M42 61L43 62L42 61M50 61L51 62L50 61z"/>
<path style="fill:#5dafcf; stroke:none;" d="M52 61L53 62L52 61z"/>
<path style="fill:#96a6bc; stroke:none;" d="M55 61L56 62L55 61z"/>
<path style="fill:#5dafcf; stroke:none;" d="M95 61C96.1266 63.0059 96.8734 63.0059 98 61L95 61z"/>
<path style="fill:#fafdfe; stroke:none;" d="M98 61L99 62L98 61z"/>
<path style="fill:#96a6bc; stroke:none;" d="M102 61L103 62L102 61M141 61L142 62L141 61M146 61L147 62L146 61M153 61L154 62L153 61M157 61L158 62L157 61M159 61L160 62L159 61M40 62L41 63L40 62M44 62L45 63L44 62M49 62L50 63L49 62M51 62L52 63L51 62M56 62L57 63L56 62M139 62L140 63L139 62M145 62L146 63L145 62M147 62L148 63L147 62M155 62L156 63L155 62M29 63L30 64L29 63z"/>
<path style="fill:#5dafcf; stroke:none;" d="M42 63L43 64L42 63z"/>
<path style="fill:#96a6bc; stroke:none;" d="M45 63L46 64L45 63M48 63L49 64L48 63M50 63L51 64L50 63M94 63L95 64L94 63M146 63L147 64L146 63M148 63L149 64L148 63z"/>
<path style="fill:#5dafcf; stroke:none;" d="M150 63L151 64L150 63M153 63L154 64L153 63z"/>
<path style="fill:#96a6bc; stroke:none;" d="M167 63L168 64L167 63M28 64L29 65L28 64M43 64L44 65L43 64z"/>
<path style="fill:#5dafcf; stroke:none;" d="M44 64L45 65L44 64z"/>
<path style="fill:#96a6bc; stroke:none;" d="M49 64L50 65L49 64M51 64L52 65L51 64M95 64L96 65L95 64M100 64L101 65L100 64M147 64L148 65L147 64z"/>
<path style="fill:#5dafcf; stroke:none;" d="M151 64L152 65L151 64z"/>
<path style="fill:#96a6bc; stroke:none;" d="M152 64L153 65L152 64M164 64L165 65L164 64M166 64L167 65L166 64M168 64L169 65L168 64M29 65L30 66L29 65M31 65L32 66L31 65M33 65L34 66L33 65M45 65L46 66L45 65z"/>
<path style="fill:#5dafcf; stroke:none;" d="M46 65L47 66L46 65z"/>
<path style="fill:#96a6bc; stroke:none;" d="M48 65L49 66L48 65M50 65L51 66L50 65M52 65L53 66L52 65M146 65L147 66L146 65M150 65L151 66L150 65M167 65L168 66L167 65M32 66L33 67L32 66M47 66L48 67L47 66M51 66L52 67L51 66M101 66L102 101L103 101C103 93.4946 106.666 70.9512 101 66M120 66L121 67L120 66M163 66L164 67L163 66M26.3333 67.6667L26.6667 68.3333L26.3333 67.6667M50 67L51 68L50 67M74 67L75 68L74 67M77 67L78 68L77 67z"/>
<path style="fill:#345371; stroke:none;" d="M101 67L101 101L102 101L101 67z"/>
<path style="fill:#fafdfe; stroke:none;" d="M118 67L119 68L118 67z"/>
<path style="fill:#96a6bc; stroke:none;" d="M122 67L123 68L122 67M145 67L146 68L145 67M166 67L167 68L166 67M168 67L169 68L168 67M28 68L29 69L28 68M75 68L76 69L75 68z"/>
<path style="fill:#fafdfe; stroke:none;" d="M119 68L119 69C140.32 77.9233 150 98.0412 150 120L151 120C151 97.7858 142.678 74.8213 119 68z"/>
<path style="fill:#96a6bc; stroke:none;" d="M121 68L122 69L121 68M124 68L125 69L124 68M167 68L168 69L167 68M169 68L170 69L169 68M27 69L28 70L27 69M30 69L31 70L30 69M70 69L71 70L70 69M73 69L74 70L73 69M76 69L77 70L76 69M79 69L80 70L79 69M97 69L96 88L97 88L97 70L98 70L98 126L99 126L99 86L97 69M120 69L121 70L120 69M123 69L124 70L123 69M126 69L127 70L126 69M165 69L166 70L165 69M28 70L29 71L28 70M68 70L69 71L68 70M71 70L72 71L71 70M77 70L78 71L77 70z"/>
<path style="fill:#345371; stroke:none;" d="M97 70L97 126L98 126L98 88L97 70z"/>
<path style="fill:#96a6bc; stroke:none;" d="M118 70L119 71L118 70M125 70L126 71L125 70M128 70L129 71L128 70M29 71L30 72L29 71M31 71L32 72L31 71M66 71L67 72L66 71M69 71L70 72L69 71M72 71L73 72L72 71M124 71L125 72L124 71M127 71L128 72L127 71z"/>
<path style="fill:#5dafcf; stroke:none;" d="M164 71L165 72L164 71z"/>
<path style="fill:#96a6bc; stroke:none;" d="M30 72L31 73L30 72M32 72L33 73L32 72M65 72L66 73L65 72M67 72L68 73L67 72M73 72L74 73L73 72M122 72L123 73L122 72M129 72L130 73L129 72M131 72L132 73L131 72z"/>
<path style="fill:#5dafcf; stroke:none;" d="M163 72L164 73L163 72z"/>
<path style="fill:#96a6bc; stroke:none;" d="M33 73L34 74L33 73M66 73L67 74L66 73z"/>
<path style="fill:#345371; stroke:none;" d="M93 73L93 117L94 117C94 104.52 97.8102 84.4634 93 73z"/>
<path style="fill:#96a6bc; stroke:none;" d="M94 73L94 117L95 117C95 104.52 98.8102 84.4634 94 73M130 73L131 74L130 73z"/>
<path style="fill:#5dafcf; stroke:none;" d="M162 73L163 74L162 73z"/>
<path style="fill:#96a6bc; stroke:none;" d="M34 74L35 75L34 74M62 74L63 75L62 74M129 74L130 75L129 74M134 74L135 75L134 74z"/>
<path style="fill:#5dafcf; stroke:none;" d="M161 74L162 75L161 74z"/>
<path style="fill:#96a6bc; stroke:none;" d="M164 74L165 75L164 74M35 75L36 76L35 75M61 75L62 76L61 75M63 75L64 76L63 75M68 75L69 76L68 75M127 75L128 76L127 75M130 75L131 76L130 75M133 75L134 76L133 75M135 75L136 76L135 75M160 75L159 77L160 75M163 75L164 76L163 75M36 76L37 77L36 76M60 76L61 77L60 76M62 76L63 77L62 76M134 76L135 77L134 76M136 76L137 77L136 76z"/>
<path style="fill:#5dafcf; stroke:none;" d="M160 76L161 77L160 76z"/>
<path style="fill:#96a6bc; stroke:none;" d="M162 76L163 77L162 76M59 77L60 78L59 77M61 77L62 78L61 77M63 77L64 78L63 77M135 77L136 78L135 77M137 77L138 78L137 77z"/>
<path style="fill:#5dafcf; stroke:none;" d="M158 77C155.919 82.5019 159.343 87.1493 162 92C171.779 91.3704 176.982 91.6375 179 102L180 102L178 89C168.424 91.7344 158.24 88.8807 160 77L158 77z"/>
<path style="fill:#96a6bc; stroke:none;" d="M161 77L162 78L161 77M35.3333 78.6667L35.6667 79.3333L35.3333 78.6667z"/>
<path style="fill:#5dafcf; stroke:none;" d="M37 78L34 91C23.3787 88.4713 16.5426 90.1264 16 102L17 102L19 92C25.1914 92 46.8472 89.2545 37 78z"/>
<path style="fill:#96a6bc; stroke:none;" d="M58 78L59 79L58 78M60 78L61 79L60 78M64 78L65 79L64 78M136 78L137 79L136 78M138 78L139 79L138 78M57 79L58 80L57 79M59 79L60 80L59 79M61 79L62 80L61 79M137 79L138 80L137 79M139 79L140 80L139 79M156 79L157 80L156 79M159 79L161 81L159 79M161 79L162 80L161 79M36 80L38 82L36 80z"/>
<path style="fill:#fafdfe; stroke:none;" d="M37 80L38 81L37 80z"/>
<path style="fill:#96a6bc; stroke:none;" d="M56 80L57 81L56 80M58 80L59 81L58 80M62 80L63 81L62 80M133 80L134 81L133 80M138 80L139 81L138 80M140 80L141 81L140 80z"/>
<path style="fill:#fafdfe; stroke:none;" d="M159 80L163 90L164 90L159 80z"/>
<path style="fill:#96a6bc; stroke:none;" d="M34 81L35 82L34 81z"/>
<path style="fill:#fafdfe; stroke:none;" d="M36 81L32 91L33 91L36 81z"/>
<path style="fill:#96a6bc; stroke:none;" d="M55 81L56 82L55 81M57 81L58 82L57 81M134 81L135 82L134 81M139 81L140 82L139 81M162 81L163 82L162 81M35 82L36 83L35 82M56 82L57 83L56 82M58 82L59 83L58 82M60 82L61 83L60 82M135 82L136 83L135 82M140 82L141 83L140 82M161 82L162 83L161 82M33 83L34 84L33 83M36 83L37 84L36 83M163 83L164 84L163 83M34 84L35 85L34 84M53 84L54 85L53 84M143 84L144 85L143 84M160 84L161 85L160 84M162 84L163 85L162 84M32 85L33 86L32 85M35 85L36 86L35 85M52 85L53 86L52 85M140 85L141 86L140 85M142 85L143 86L142 85M144 85L145 86L144 85M164 85L165 86L164 85M33 86L34 87L33 86M36 86L37 87L36 86M53 86L54 87L53 86M55 86L56 87L55 86M143 86L144 87L143 86M159 86L160 87L159 86M163 86L164 87L163 86M31 87L32 88L31 87M51 87L52 88L51 87M56 87L57 88L56 87M145 87L146 88L145 87M165 87L166 88L165 87M16 88L16 89L21 89L16 88M32 88L33 89L32 88M52 88L53 89L52 88M142 88L143 89L142 88M144 88L145 89L144 88M162 88L163 89L162 88M171 88L171 89L176 89L171 88z"/>
<path style="fill:#5dafcf; stroke:none;" d="M176 88L177 89L176 88z"/>
<path style="fill:#96a6bc; stroke:none;" d="M180 88L181 89L180 88z"/>
<path style="fill:#5dafcf; stroke:none;" d="M51 89L52 90L51 89z"/>
<path style="fill:#96a6bc; stroke:none;" d="M53 89L54 90L53 89M146 89L147 90L146 89M164 89L165 90L164 89M178.667 89.3333L179.333 89.6667L178.667 89.3333M15 90L16 91L15 90z"/>
<path style="fill:#fafdfe; stroke:none;" d="M17 90L16 96L17 96L17 90z"/>
<path style="fill:#96a6bc; stroke:none;" d="M18 90L19 91L18 90M33 90L34 91L33 90M49 90L50 91L49 90M54 90L55 91L54 90M141 90L142 91L141 90M145 90L146 91L145 90z"/>
<path style="fill:#30b7e4; stroke:none;" d="M173.667 90.3333L174.333 90.6667L173.667 90.3333z"/>
<path style="fill:#fafdfe; stroke:none;" d="M178 90L181 100L182 100L178 90z"/>
<path style="fill:#96a6bc; stroke:none;" d="M181.333 90.6667L181.667 91.3333L181.333 90.6667M16.3333 91.6667L16.6667 92.3333L16.3333 91.6667M34 91L35 92L34 91M50 91L51 92L50 91M147 91L148 92L147 91M161 91L162 92L161 91z"/>
<path style="fill:#30b7e4; stroke:none;" d="M163 91L164 92L163 91z"/>
<path style="fill:#96a6bc; stroke:none;" d="M178 91L179 92L178 91M28 92L28 93L34 93L28 92M48 92L49 93L48 92M53 92L54 93L53 92M142 92L143 93L142 92M144 92L145 93L144 92M146 92L147 93L146 92M162 92L162 93L167 93L162 92M180 92L181 93L180 92M17 93L18 94L17 93M49.3333 93.6667L49.6667 94.3333L49.3333 93.6667M51 93L52 94L51 93M148 93L149 94L148 93M14 94L17 97L14 94M52 94L53 95L52 94M143 94L144 95L143 94M147 94L148 95L147 94M177 94L178 95L177 94M182.333 94.6667L182.667 95.3333L182.333 94.6667M18 95L19 96L18 95M47 95L48 96L47 95M149 95L150 96L149 95z"/>
<path style="fill:#345371; stroke:none;" d="M14 96L14 100L15 100L14 96z"/>
<path style="fill:#96a6bc; stroke:none;" d="M48 96L49 97L48 96M146 96L147 97L146 96M148.333 96.6667L148.667 97.3333L148.333 96.6667M181.333 96.6667L181.667 97.3333L181.333 96.6667z"/>
<path style="fill:#fafdfe; stroke:none;" d="M15 97L15 101L16 101L15 97z"/>
<path style="fill:#96a6bc; stroke:none;" d="M46.3333 97.6667L46.6667 98.3333L46.3333 97.6667M13 98L13 102L14 102L13 98M150 98L151 99L150 98M47 99L48 100L47 99M50 99L51 100L50 99M145 99L146 100L145 99M149.333 99.6667L149.667 100.333L149.333 99.6667M178 99L179 100L178 99M180 99L180 101L182 101L180 99M183 99L183 102L184 102L183 99M48 100L49 101L48 100z"/>
<path style="fill:#345371; stroke:none;" d="M14 101L14 102C16.6044 103.387 19.3032 104.391 21.9807 105.619C38.1175 113.016 14.2428 122.698 14 130L15 130C16.2129 122.372 23.2705 124.533 26.9722 119.351C34.3379 109.04 21.5987 103.078 14 101z"/>
<path style="fill:#96a6bc; stroke:none;" d="M45.3333 101.667L45.6667 102.333L45.3333 101.667M18 102L19 103L18 102M148 102L149 103L148 102M151.333 102.667L151.667 103.333L151.333 102.667z"/>
<path style="fill:#5dafcf; stroke:none;" d="M177 102L178 103L177 102z"/>
<path style="fill:#96a6bc; stroke:none;" d="M15.6667 103.333L16.3333 103.667L15.6667 103.333M21 103L22 104L21 103M46 103L48 106L46 103M174 103L175 104L174 103z"/>
<path style="fill:#5dafcf; stroke:none;" d="M176 104L176 105L180 104L176 104z"/>
<path style="fill:#96a6bc; stroke:none;" d="M180 103L181 104L180 103M17 104L18 105L17 104z"/>
<path style="fill:#5dafcf; stroke:none;" d="M18 104L18 105L22 106L22 105L18 104z"/>
<path style="fill:#96a6bc; stroke:none;" d="M23 104L24 105L23 104M150.333 104.667L150.667 105.333L150.333 104.667M172 104L173 105L172 104M178 104L179 105L178 104M19 105L20 106L19 105M26 105L27 106L26 105z"/>
<path style="fill:#fafdfe; stroke:none;" d="M46 105L46 111L47 111L46 105z"/>
<path style="fill:#96a6bc; stroke:none;" d="M169 105L170 106L169 105z"/>
<path style="fill:#5dafcf; stroke:none;" d="M170 107L170 108L176 106L170 107z"/>
<path style="fill:#96a6bc; stroke:none;" d="M22 106L23 107L22 106z"/>
<path style="fill:#5dafcf; stroke:none;" d="M23 106L23 107L27 108L27 107L23 106z"/>
<path style="fill:#96a6bc; stroke:none;" d="M48 106L48 109L49 109L48 106M147.333 106.667L147.667 107.333L147.333 106.667M168 106L169 107L168 106M173 106L174 107L173 106M24 107L25 108L24 107M28 107L29 108L28 107M44 107L44 120L45 120L44 107M166 107L167 108L166 107z"/>
<path style="fill:#5dafcf; stroke:none;" d="M167 107C165.909 110.693 164.587 117.933 167.028 121.351C172.1 128.451 179.961 124.397 177 136C189.289 128.886 171.802 123.797 169.028 119.582C166.793 116.187 168.319 110.669 169 107L167 107z"/>
<path style="fill:#96a6bc; stroke:none;" d="M171 107L172 108L171 107M26 108L26 117L27 117L26 108z"/>
<path style="fill:#5dafcf; stroke:none;" d="M28 108C28.885 111.717 30.2023 117.274 27.3966 120.501C22.2626 126.405 12.9803 124.38 17 135L18 135C17.927 132.658 17.2731 129.523 18.7731 127.499C22.2087 122.864 38.5179 117.191 28 108z"/>
<path style="fill:#96a6bc; stroke:none;" d="M30.3333 108.667L30.6667 109.333L30.3333 108.667M152 108L152 118L153 118L152 108z"/>
<path style="fill:#fafdfe; stroke:none;" d="M28 109L28 113L29 113L28 109M168 109L168 118L169 118L168 109z"/>
<path style="fill:#345371; stroke:none;" d="M109 110L109 111L111 113L109 112L109 113L111 114L109 110z"/>
<path style="fill:#96a6bc; stroke:none;" d="M111 110L112 111L111 110M170 110L170 115L171 115L170 110M46 111L47 112L46 111M102 111L103 112L102 111z"/>
<path style="fill:#345371; stroke:none;" d="M103 111L104 112L103 111z"/>
<path style="fill:#96a6bc; stroke:none;" d="M104 111L105 112L104 111M108 113L111 112L108 113z"/>
<path style="fill:#345371; stroke:none;" d="M44.3333 112.667L44.6667 113.333L44.3333 112.667M101 112L102 113L101 112z"/>
<path style="fill:#5dafcf; stroke:none;" d="M101 113L101 115L107 116L105 112L101 113z"/>
<path style="fill:#345371; stroke:none;" d="M105 112L107 115L105 112z"/>
<path style="fill:#5dafcf; stroke:none;" d="M110 112L111 113L110 112z"/>
<path style="fill:#96a6bc; stroke:none;" d="M112 112L113 113L112 112M28 113L29 114L28 113M100.333 113.667L100.667 114.333L100.333 113.667M106 113L107 114L106 113z"/>
<path style="fill:#5dafcf; stroke:none;" d="M109 113L110 114L109 113M111 113L112 114L111 113z"/>
<path style="fill:#fafdfe; stroke:none;" d="M28 114L25 121L25 122C28.8185 120.465 29.564 117.757 28 114z"/>
<path style="fill:#30b7e4; stroke:none;" d="M103.667 114.333L104.333 114.667L103.667 114.333z"/>
<path style="fill:#345371; stroke:none;" d="M101 115L101 116L106 115L101 115M45 116C45.1119 129.523 49.0232 134.826 36 144C31.3827 133.024 19.3851 140.207 16 131L15 131C16.4993 140.205 22.5478 135.012 28.8951 137.603C32.3071 138.997 33.6837 142.862 35 146L38 146C46.1565 134.421 51.2779 130.553 45 116z"/>
<path style="fill:#96a6bc; stroke:none;" d="M101 116L102 117L101 116M106 116L107 120L108 120L106 116z"/>
<path style="fill:#345371; stroke:none;" d="M107 116L107 117L110 117L107 116z"/>
<path style="fill:#96a6bc; stroke:none;" d="M104 117L105 118L104 117z"/>
<path style="fill:#5dafcf; stroke:none;" d="M107 117L110 120L110 117L107 117z"/>
<path style="fill:#96a6bc; stroke:none;" d="M110.333 117.667L110.667 118.333L110.333 117.667z"/>
<path style="fill:#345371; stroke:none;" d="M107 118L108 119L107 118M109 118L110 119L109 118z"/>
<path style="fill:#96a6bc; stroke:none;" d="M168 118L169 119L168 118M25 119L26 120L25 119M30 119L30 122L31 122L30 119M46.3333 119.667L46.6667 120.333L46.3333 119.667z"/>
<path style="fill:#345371; stroke:none;" d="M108 119L109 120L108 119z"/>
<path style="fill:#fafdfe; stroke:none;" d="M168 119L181 127L182 127L168 119z"/>
<path style="fill:#96a6bc; stroke:none;" d="M172 119L173 120L172 119M22.6667 120.333L23.3333 120.667L22.6667 120.333M26 120L27 121L26 120M150.333 120.667L150.667 121.333L150.333 120.667M171 120L172 121L171 120M174 120L175 121L174 120M20 121L21 122L20 121M24.3333 121.667L24.6667 122.333L24.3333 121.667M27 121L28 122L27 121M48.3333 121.667L48.6667 122.333L48.3333 121.667M88 121L88 122L92 123L88 121M170 121L171 122L170 121M173 121L174 122L173 121M177 121L178 122L177 121M17.6667 122.333L18.3333 122.667L17.6667 122.333M21 122L23 124L21 122z"/>
<path style="fill:#fafdfe; stroke:none;" d="M22.6667 122.333L23.3333 122.667L22.6667 122.333z"/>
<path style="fill:#96a6bc; stroke:none;" d="M28 122L29 123L28 122z"/>
<path style="fill:#345371; stroke:none;" d="M88 122L91 125L91 124L88 122M90 122L91 123L90 122z"/>
<path style="fill:#96a6bc; stroke:none;" d="M147.333 122.667L147.667 123.333L147.333 122.667M151.333 122.667L151.667 123.333L151.333 122.667M176 122L177 123L176 122M179 122L180 123L179 122M15 123L16 124L15 123M19 123L20 124L19 123z"/>
<path style="fill:#fafdfe; stroke:none;" d="M20.6667 123.333L21.3333 123.667L20.6667 123.333z"/>
<path style="fill:#96a6bc; stroke:none;" d="M26 123L27 124L26 123M45.3333 123.667L45.6667 124.333L45.3333 123.667z"/>
<path style="fill:#5dafcf; stroke:none;" d="M89 123L89 124L92 124L89 123z"/>
<path style="fill:#fafdfe; stroke:none;" d="M149 123L150 124L149 123z"/>
<path style="fill:#96a6bc; stroke:none;" d="M175 123L176 124L175 123M178 123L179 124L178 123M182 123L183 124L182 123M13 124L13 128L14 128L13 124M16 124L18 126L16 124z"/>
<path style="fill:#fafdfe; stroke:none;" d="M17 124L17 125L20 125L17 124z"/>
<path style="fill:#96a6bc; stroke:none;" d="M23 124L24 125L23 124M47.3333 124.667L47.6667 125.333L47.3333 124.667M91 124L92 125L91 124M149.333 124.667L149.667 125.333L149.333 124.667z"/>
<path style="fill:#30b7e4; stroke:none;" d="M176 124L177 125L176 124z"/>
<path style="fill:#96a6bc; stroke:none;" d="M181 124L182 125L181 124M183.333 124.667L183.667 125.333L183.333 124.667z"/>
<path style="fill:#fafdfe; stroke:none;" d="M15.6667 125.333L16.3333 125.667L15.6667 125.333z"/>
<path style="fill:#96a6bc; stroke:none;" d="M21 125L22 126L21 125M89 125L89 128C91.0059 126.873 91.0059 126.127 89 125M180 125L181 126L180 125M15 126L15 130L16 130L15 126M18 126L19 127L18 126M49 126L50 127L49 126z"/>
<path style="fill:#345371; stroke:none;" d="M91 126L91 127L94 127L93 131L91 131L90 128L89 128C92.3778 134.086 97.1078 128.03 91 126z"/>
<path style="fill:#96a6bc; stroke:none;" d="M150.333 126.667L150.667 127.333L150.333 126.667M46 127L47 128L46 127z"/>
<path style="fill:#fafdfe; stroke:none;" d="M91 127L90 129L91 127z"/>
<path style="fill:#96a6bc; stroke:none;" d="M92.6667 127.333L93.3333 127.667L92.6667 127.333M148.333 127.667L148.667 128.333L148.333 127.667M181 127L180 133L181 133L181 127z"/>
<path style="fill:#5dafcf; stroke:none;" d="M90 129L90 130L94 128L90 129z"/>
<path style="fill:#96a6bc; stroke:none;" d="M17 129L18 130L17 129z"/>
<path style="fill:#30b7e4; stroke:none;" d="M92 129L93 130L92 129z"/>
<path style="fill:#96a6bc; stroke:none;" d="M95 129L96 130L95 129M149.333 129.667L149.667 130.333L149.333 129.667M14.3333 130.667L14.6667 131.333L14.3333 130.667M47 130L48 131L47 130M50 130L51 131L50 130M145 130L146 131L145 130M182 130L183 131L182 130M90 131L91 132L90 131M94 131L95 132L94 131M51 132L52 133L51 132M92.6667 132.333L93.3333 132.667L92.6667 132.333M148 132L149 133L148 132M47 133L48 134L47 133M49 133L38 145L39 146L40 146L41 145L46 137L47 136L49 137L50 136L49 133M146 133L147 136L151 140L152 140L153 138L146 133M149 133L150 134L149 133M15.3333 134.667L15.6667 135.333L15.3333 134.667M18 134L17 136L19 136L18 134M46 134L47 135L46 134z"/>
<path style="fill:#fafdfe; stroke:none;" d="M49 134L50 135L49 134z"/>
<path style="fill:#30b7e4; stroke:none;" d="M145 134L146 135L145 134z"/>
<path style="fill:#fafdfe; stroke:none;" d="M147 134L148 135L147 134z"/>
<path style="fill:#96a6bc; stroke:none;" d="M150 134L151 135L150 134M177 134L178 135L177 134M181 134L182 135L181 134M26 135L26 136L32 136L26 135M45 135L46 136L45 135z"/>
<path style="fill:#fafdfe; stroke:none;" d="M48 135L49 136L48 135z"/>
<path style="fill:#96a6bc; stroke:none;" d="M95 135L95 136L98 136L98 135L95 135z"/>
<path style="fill:#345371; stroke:none;" d="M96 135L97 136L96 135z"/>
<path style="fill:#96a6bc; stroke:none;" d="M144 135L145 136L144 135z"/>
<path style="fill:#fafdfe; stroke:none;" d="M148 135L152 139L148 135z"/>
<path style="fill:#96a6bc; stroke:none;" d="M151 135L152 136L151 135M169 135L169 136L176 136L169 135M179 135L180 136L179 135M44 136L45 137L44 136z"/>
<path style="fill:#fafdfe; stroke:none;" d="M47 136L46 138L48 138L47 136z"/>
<path style="fill:#96a6bc; stroke:none;" d="M50 136L51 137L50 136z"/>
<path style="fill:#345371; stroke:none;" d="M95 136L94 145C89.2543 147.604 88.1272 150.738 88 156C84.1224 156.125 81.9282 156.502 80 160L81 160L89 157L95 136M97 136L99 146C106.621 151.657 108.457 159.963 119 160L119 159C105.254 158.55 105.623 142.349 97 136z"/>
<path style="fill:#96a6bc; stroke:none;" d="M152 136L153 137L152 136M164 136L165 137L164 136z"/>
<path style="fill:#5dafcf; stroke:none;" d="M166 136C168.391 139.689 175.018 140.412 178 137L166 136z"/>
<path style="fill:#96a6bc; stroke:none;" d="M16 137L17 138L16 137z"/>
<path style="fill:#5dafcf; stroke:none;" d="M17 137L18 138L17 137M18 138L18 139L32 139L18 138z"/>
<path style="fill:#96a6bc; stroke:none;" d="M20 137L20 138L26 138L20 137z"/>
<path style="fill:#fafdfe; stroke:none;" d="M26 137L27 138L26 137z"/>
<path style="fill:#96a6bc; stroke:none;" d="M27 137L27 138L31 138L27 137M33 137L35 139L33 137M43 137L44 138L43 137M49 137L50 138L49 137M94.3333 137.667L94.6667 138.333L94.3333 137.667z"/>
<path style="fill:#fafdfe; stroke:none;" d="M96 137L89 157L72 167L82 166C83.0609 160.79 85.7658 158.585 91 158L98 137L96 137z"/>
<path style="fill:#96a6bc; stroke:none;" d="M99 137L101 139L99 137M146 137L147 138L146 137M153 137L154 138L153 137z"/>
<path style="fill:#5dafcf; stroke:none;" d="M162 137L160 144L161 144L161 140L164 137L162 137z"/>
<path style="fill:#96a6bc; stroke:none;" d="M173 137L173 138L176 138L173 137M178.333 137.667L178.667 138.333L178.333 137.667z"/>
<path style="fill:#5dafcf; stroke:none;" d="M33 138L34 139L33 138z"/>
<path style="fill:#96a6bc; stroke:none;" d="M42 138L43 139L42 138z"/>
<path style="fill:#fafdfe; stroke:none;" d="M45 138L44 140L45 138z"/>
<path style="fill:#5dafcf; stroke:none;" d="M99 138L100 139L99 138z"/>
<path style="fill:#96a6bc; stroke:none;" d="M147 138L148 139L147 138M154 138L155 139L154 138M161 138L162 139L161 138M165.667 138.333L166.333 138.667L165.667 138.333M18 139L19 140L18 139M20.6667 139.333L21.3333 139.667L20.6667 139.333z"/>
<path style="fill:#5dafcf; stroke:none;" d="M34 139L35 143L36 143L34 139z"/>
<path style="fill:#96a6bc; stroke:none;" d="M41 139L42 140L41 139z"/>
<path style="fill:#5dafcf; stroke:none;" d="M100.333 139.667L100.667 140.333L100.333 139.667z"/>
<path style="fill:#30b7e4; stroke:none;" d="M149 139L150 140L149 139z"/>
<path style="fill:#fafdfe; stroke:none;" d="M152 139L158 145L152 139z"/>
<path style="fill:#96a6bc; stroke:none;" d="M155 139L156 140L155 139M175 139L175 140L178 140L175 139M32 140L33 141L32 140M40 140L41 141L40 140z"/>
<path style="fill:#fafdfe; stroke:none;" d="M43 140L40 144L43 140z"/>
<path style="fill:#96a6bc; stroke:none;" d="M46 140L47 141L46 140M93 140L94 141L93 140z"/>
<path style="fill:#5dafcf; stroke:none;" d="M98 140L96 146L97 146L98 140z"/>
<path style="fill:#96a6bc; stroke:none;" d="M149 140L150 141L149 140M154 140L155 141L154 140M156 140L157 141L156 140z"/>
<path style="fill:#30b7e4; stroke:none;" d="M161.333 140.667L161.667 141.333L161.333 140.667z"/>
<path style="fill:#96a6bc; stroke:none;" d="M164 140L165 141L164 140M39 141L40 142L39 141M115 141L114 142L114 143L115 144L116 144L117 143L117 142L115 141z"/>
<path style="fill:#345371; stroke:none;" d="M116 141L116 142L120 146L115 143L114 143C116.59 151.545 124.344 143.54 116 141z"/>
<path style="fill:#96a6bc; stroke:none;" d="M119 141L120 142L119 141M150 141L151 142L150 141M153 141L154 142L153 141M155 141L156 142L155 141M157 141L158 142L157 141M33 142L34 143L33 142M38 142L39 143L38 142z"/>
<path style="fill:#30b7e4; stroke:none;" d="M99 142L100 143L99 142z"/>
<path style="fill:#5dafcf; stroke:none;" d="M101 142L102 146L103 146L101 142z"/>
<path style="fill:#345371; stroke:none;" d="M115 142L116 143L115 142z"/>
<path style="fill:#fafdfe; stroke:none;" d="M117 142L115 145L117 142z"/>
<path style="fill:#96a6bc; stroke:none;" d="M118 142L119 143L118 142M120 142L121 143L120 142M128.667 142.333L129.333 142.667L128.667 142.333M151 142L152 143L151 142M154 142L155 143L154 142M156 142L157 143L156 142M158 142L159 143L158 142M163 142L164 143L163 142M36.6667 143.333L37.3333 143.667L36.6667 143.333M94 143L95 144L94 143z"/>
<path style="fill:#30b7e4; stroke:none;" d="M98 143L92 158C85.3159 159.814 82.6989 166.786 75.9992 167.627C69.5215 168.44 58.4956 165.934 53.2284 161.995C49.3968 159.13 50.3035 154.884 45 154C51.3291 187.184 108.688 196.449 131 176L131 180L134 179L132 177L132 176L142 168L142 167L114.039 160.973L98 143z"/>
<path style="fill:#96a6bc; stroke:none;" d="M102 143L103 144L102 143z"/>
<path style="fill:#5dafcf; stroke:none;" d="M117 143L116 147L120 144L117 143z"/>
<path style="fill:#96a6bc; stroke:none;" d="M125 143L128 146L125 143z"/>
<path style="fill:#345371; stroke:none;" d="M126 143L126 144C127.33 144.149 128.762 144.123 130 144.742C143.08 151.285 120.93 161.052 123.948 148.044C124.262 146.692 125.355 145.181 126 144C119.973 147.521 122.212 157.924 129.995 156.623C140.861 154.808 134.164 143.265 126 143z"/>
<path style="fill:#96a6bc; stroke:none;" d="M132 143L133 144L132 143M152 143L153 144L152 143M155 143L156 144L155 143M157 143L158 144L157 143M34 144L35 145L34 144z"/>
<path style="fill:#fafdfe; stroke:none;" d="M39 144L40 145L39 144z"/>
<path style="fill:#96a6bc; stroke:none;" d="M93 144L94 145L93 144M121 144L122 145L121 144z"/>
<path style="fill:#fafdfe; stroke:none;" d="M127.667 144.333L128.333 144.667L127.667 144.333z"/>
<path style="fill:#96a6bc; stroke:none;" d="M129 144L130 145L129 144z"/>
<path style="fill:#5dafcf; stroke:none;" d="M130 144L128 145L128 146L130 144z"/>
<path style="fill:#96a6bc; stroke:none;" d="M133 144L134 145L133 144M153 144L154 145L153 144M156 144L157 145L156 144M158 144L159 145L158 144M162 144L163 145L162 144z"/>
<path style="fill:#fafdfe; stroke:none;" d="M38 145L39 146L38 145z"/>
<path style="fill:#96a6bc; stroke:none;" d="M63 145L65 147L63 145z"/>
<path style="fill:#345371; stroke:none;" d="M64 145L64 146C65.4086 146.218 66.7445 146.225 67.9969 147.024C79.6824 154.476 59.1866 161.948 61.9483 150.044C62.262 148.692 63.3546 147.181 64 146C57.8913 149.569 59.9361 160.21 67.9853 158.638C78.7289 156.54 71.8706 145.431 64 145z"/>
<path style="fill:#96a6bc; stroke:none;" d="M69 145L70 146L69 145M78 145L78 146L81 146L78 145M92 145L93 146L92 145M94 145L95 146L94 145M115 145L116 146L115 145z"/>
<path style="fill:#30b7e4; stroke:none;" d="M117 145L118 146L117 145M119 145L120 146L119 145z"/>
<path style="fill:#5dafcf; stroke:none;" d="M121 145L120 148L121 145z"/>
<path style="fill:#fafdfe; stroke:none;" d="M125 145L123 152L124 152L127 145L125 145z"/>
<path style="fill:#30b7e4; stroke:none;" d="M129.986 145.801C124.491 146.473 124.042 155.502 129.965 155.168C135.316 154.867 135.715 145.1 129.986 145.801z"/>
<path style="fill:#5dafcf; stroke:none;" d="M132 145L133 146L132 145z"/>
<path style="fill:#96a6bc; stroke:none;" d="M134 145L135 146L134 145M154 145L155 146L154 145M35 146L36 147L35 146z"/>
<path style="fill:#fafdfe; stroke:none;" d="M61 154L62 154L68 147C63.2097 145.731 61.4642 149.87 61 154z"/>
<path style="fill:#96a6bc; stroke:none;" d="M68 146L69 147L68 146M71 146L72 147L71 146z"/>
<path style="fill:#345371; stroke:none;" d="M77.7461 147.043C74.9323 149.335 78.6625 153.544 81.3573 151.154C83.9624 148.843 80.3909 144.89 77.7461 147.043z"/>
<path style="fill:#96a6bc; stroke:none;" d="M90 146L91 147L90 146M93 146L94 147L93 146M96 146L97 147L96 146M114 146L115 147L114 146z"/>
<path style="fill:#30b7e4; stroke:none;" d="M120 146L121 147L120 146z"/>
<path style="fill:#96a6bc; stroke:none;" d="M122 146L123 147L122 146z"/>
<path style="fill:#5dafcf; stroke:none;" d="M126 146L127 147L126 146z"/>
<path style="fill:#96a6bc; stroke:none;" d="M135 146L136 147L135 146M160 146L161 147L160 146z"/>
<path style="fill:#5dafcf; stroke:none;" d="M63 157L64 157C63.0427 151.794 64.7835 149.079 70 148C63.8385 145.885 61.6391 151.989 63 157z"/>
<path style="fill:#96a6bc; stroke:none;" d="M76 147L77 148L76 147M78 147L77 149L78 147z"/>
<path style="fill:#5dafcf; stroke:none;" d="M77 150L82 150L82 149L78 150L78 149L81 148L77 150z"/>
<path style="fill:#96a6bc; stroke:none;" d="M82 147L83 148L82 147M89 147L90 148L89 147M91 147L92 148L91 147z"/>
<path style="fill:#5dafcf; stroke:none;" d="M96 147L97 148L96 147M101 147L102 148L101 147z"/>
<path style="fill:#96a6bc; stroke:none;" d="M115 147L116 148L115 147M121 147L122 148L121 147M123 147L124 148L123 147z"/>
<path style="fill:#5dafcf; stroke:none;" d="M125.333 147.667L125.667 148.333L125.333 147.667z"/>
<path style="fill:#96a6bc; stroke:none;" d="M156 147L157 148L156 147M60 148L61 149L60 148z"/>
<path style="fill:#30b7e4; stroke:none;" d="M69 158C69.7031 156.992 70.7422 155.818 71.2361 154.67C76.8412 141.642 52.2821 155.195 69 158M78 149L78 150L82 149L78 149z"/>
<path style="fill:#96a6bc; stroke:none;" d="M90 148L91 149L90 148z"/>
<path style="fill:#5dafcf; stroke:none;" d="M95 148L96 149L95 148M102 148L103 149L102 148z"/>
<path style="fill:#96a6bc; stroke:none;" d="M117 148L117 149L120 149L117 148z"/>
<path style="fill:#5dafcf; stroke:none;" d="M134.333 148.667L134.667 149.333L134.333 148.667M136 148L132 156L132 157C136.189 155.397 137.73 152.249 136 148z"/>
<path style="fill:#96a6bc; stroke:none;" d="M157.667 148.333L158.333 148.667L157.667 148.333M61 149L62 150L61 149M73 149L74 150L73 149M88 149L89 150L88 149M93 149L94 150L93 149z"/>
<path style="fill:#5dafcf; stroke:none;" d="M94 149L95 150L94 149M103 149L104 150L103 149z"/>
<path style="fill:#96a6bc; stroke:none;" d="M105 149L106 150L105 149M121.333 149.667L121.667 150.333L121.333 149.667z"/>
<path style="fill:#5dafcf; stroke:none;" d="M124 149L127 155L124 149z"/>
<path style="fill:#96a6bc; stroke:none;" d="M41 150L40 154L41 150z"/>
<path style="fill:#345371; stroke:none;" d="M42 150L42 151C47.555 151.62 50.7393 154.182 50 160L61 165L61 164L52 160C51.7825 153.303 48.6608 150.365 42 150z"/>
<path style="fill:#96a6bc; stroke:none;" d="M47 150L48 151L47 150M59 150L59 154L60 154L59 150M89 150L90 151L89 150z"/>
<path style="fill:#5dafcf; stroke:none;" d="M92.3333 150.667L92.6667 151.333L92.3333 150.667z"/>
<path style="fill:#96a6bc; stroke:none;" d="M106 150L107 151L106 150M115 150L116 151L115 150z"/>
<path style="fill:#345371; stroke:none;" d="M116.264 150.89C113.377 151.88 114.864 156.18 117.736 155.249C120.628 154.312 119.2 149.882 116.264 150.89M40 151L40 153L42 151L40 151z"/>
<path style="fill:#fafdfe; stroke:none;" d="M42 154L47 152L42 154z"/>
<path style="fill:#96a6bc; stroke:none;" d="M46 151L47 152L46 151M49 151L50 152L49 151M74 151L75 152L74 151M82 151L83 152L82 151M87 151L87 155L83 155L83 156L88 156L87 151z"/>
<path style="fill:#5dafcf; stroke:none;" d="M104.333 151.667L104.667 152.333L104.333 151.667M106 151L107 152L106 151z"/>
<path style="fill:#fafdfe; stroke:none;" d="M116 151L115 154L116 154L116 151z"/>
<path style="fill:#96a6bc; stroke:none;" d="M117 151L116 153L117 151M149 151L149 152L154 153L149 151M47 152L48 153L47 152z"/>
<path style="fill:#5dafcf; stroke:none;" d="M44 159L56 171L45 154L50 155L49 152C45.3161 153.564 44.441 155.099 44 159z"/>
<path style="fill:#96a6bc; stroke:none;" d="M50 152L51 153L50 152z"/>
<path style="fill:#5dafcf; stroke:none;" d="M74 152L67 159L67 160C71.4772 159.396 75.7512 157.061 74 152z"/>
<path style="fill:#96a6bc; stroke:none;" d="M78 152L79 153L78 152z"/>
<path style="fill:#5dafcf; stroke:none;" d="M80 152L81 153L80 152z"/>
<path style="fill:#96a6bc; stroke:none;" d="M81 152L82 153L81 152z"/>
<path style="fill:#5dafcf; stroke:none;" d="M91 152L91 155L92 155L91 152z"/>
<path style="fill:#96a6bc; stroke:none;" d="M107 152L108 153L107 152z"/>
<path style="fill:#5dafcf; stroke:none;" d="M116 155L119 152L116 155z"/>
<path style="fill:#96a6bc; stroke:none;" d="M120 152L121 153L120 152M123 152L124 153L123 152M147 152L146 153L146 154L147 155L148 155L149 154L149 153L147 152z"/>
<path style="fill:#345371; stroke:none;" d="M148 152L148 153L152 153L147 160L147 154L146 154L146 160L120 160L120 161L147 161L132 177C141.226 173.426 151.222 161.823 153 152L148 152M41 153C51.7904 189.669 103.997 196.468 132 178L132 177C122.705 179.941 114.912 185.013 105 186.561C76.0912 191.076 57.8687 173.145 41 153z"/>
<path style="fill:#96a6bc; stroke:none;" d="M44 153L45 154L44 153M51 153L52 154L51 153M108 153L109 154L108 153z"/>
<path style="fill:#5dafcf; stroke:none;" d="M120 153L119 156L120 153z"/>
<path style="fill:#96a6bc; stroke:none;" d="M122 153L123 154L122 153z"/>
<path style="fill:#345371; stroke:none;" d="M147 153L148 154L147 153z"/>
<path style="fill:#fafdfe; stroke:none;" d="M147 159L151 153L147 159z"/>
<path style="fill:#96a6bc; stroke:none;" d="M151 153L152 154L151 153M42 154L43 157L44 157L44 154L42 154M61 154L62 155L61 154M109 154L110 155L109 154M123 154L124 155L123 154z"/>
<path style="fill:#30b7e4; stroke:none;" d="M134 154L135 155L134 154z"/>
<path style="fill:#5dafcf; stroke:none;" d="M152 156L155 154L152 156z"/>
<path style="fill:#96a6bc; stroke:none;" d="M41 155L42 156L41 155z"/>
<path style="fill:#5dafcf; stroke:none;" d="M50 155L50 159L51 159L50 155M52 155L54 158L52 155z"/>
<path style="fill:#96a6bc; stroke:none;" d="M60 155L61 156L60 155z"/>
<path style="fill:#5dafcf; stroke:none;" d="M108 155L109 156L108 155z"/>
<path style="fill:#96a6bc; stroke:none;" d="M110 155L111 156L110 155M120 155L121 156L120 155M124 155L125 156L124 155z"/>
<path style="fill:#5dafcf; stroke:none;" d="M127 155L128 156L127 155z"/>
<path style="fill:#96a6bc; stroke:none;" d="M145 155L145 158L146 158L145 155M150 155L151 156L150 155z"/>
<path style="fill:#5dafcf; stroke:none;" d="M69 156L70 157L69 156z"/>
<path style="fill:#96a6bc; stroke:none;" d="M81 156L82 157L81 156z"/>
<path style="fill:#5dafcf; stroke:none;" d="M91.3333 156.667L91.6667 157.333L91.3333 156.667M109 156L110 157L109 156z"/>
<path style="fill:#96a6bc; stroke:none;" d="M118 156L119 157L118 156M125 156L126 157L125 156M134 156L135 157L134 156M149 156L150 157L149 156z"/>
<path style="fill:#30b7e4; stroke:none;" d="M152 156L150 161L154 156L152 156z"/>
<path style="fill:#96a6bc; stroke:none;" d="M154 156L155 157L154 156M42 157L43 158L42 157M44 157L45 158L44 157z"/>
<path style="fill:#30b7e4; stroke:none;" d="M52 157L52 160L54 159L54 158L52 157z"/>
<path style="fill:#5dafcf; stroke:none;" d="M66 157L67 158L66 157z"/>
<path style="fill:#96a6bc; stroke:none;" d="M80 157L81 158L80 157M82 157L83 158L82 157M129 157L129 158L133 158L129 157z"/>
<path style="fill:#5dafcf; stroke:none;" d="M149 157L150 158L149 157M151 157L152 158L151 157M153.333 157.667L153.667 158.333L153.333 157.667z"/>
<path style="fill:#96a6bc; stroke:none;" d="M63 158L64 159L63 158z"/>
<path style="fill:#30b7e4; stroke:none;" d="M70 158L71 159L70 158z"/>
<path style="fill:#96a6bc; stroke:none;" d="M72 158L73 159L72 158M81 158L82 159L81 158z"/>
<path style="fill:#5dafcf; stroke:none;" d="M86 158L86 159L91 159L86 158z"/>
<path style="fill:#96a6bc; stroke:none;" d="M112 158L112 159L117 159L112 158M43 159L44 160L43 159M45 159L46 160L45 159z"/>
<path style="fill:#5dafcf; stroke:none;" d="M53 159L54 160L53 159z"/>
<path style="fill:#96a6bc; stroke:none;" d="M66 159L67 160L66 159M79 159L80 164L75 163L75 164C79.1743 164.702 81.8888 162.991 79 159z"/>
<path style="fill:#5dafcf; stroke:none;" d="M84 159L82 166L83 166L86 159L84 159z"/>
<path style="fill:#96a6bc; stroke:none;" d="M116 161L116 162L121 159L116 161M145 159L146 160L145 159M147 159L148 160L147 159z"/>
<path style="fill:#5dafcf; stroke:none;" d="M148 159L149 160L148 159M152 159L153 160L152 159z"/>
<path style="fill:#96a6bc; stroke:none;" d="M44 160L45 161L44 160M55 160L56 161L55 160z"/>
<path style="fill:#5dafcf; stroke:none;" d="M112 160L112 161L116 162L116 161L112 160z"/>
<path style="fill:#fafdfe; stroke:none;" d="M114 160L114 161L118 161L114 160z"/>
<path style="fill:#96a6bc; stroke:none;" d="M123 160L124 161L123 160M125.667 160.333L126.333 160.667L125.667 160.333M133 160L134 161L133 160M142 160L143 161L142 160z"/>
<path style="fill:#5dafcf; stroke:none;" d="M149 160L149 164L144 167L145 170L141 174L152 160L149 160M51 161L51 162L55 162L51 161z"/>
<path style="fill:#96a6bc; stroke:none;" d="M57 161L58 162L57 161z"/>
<path style="fill:#345371; stroke:none;" d="M79 161L78 164L79 161z"/>
<path style="fill:#fafdfe; stroke:none;" d="M119.667 161.333L120.333 161.667L119.667 161.333z"/>
<path style="fill:#96a6bc; stroke:none;" d="M121 161L122 162L121 161z"/>
<path style="fill:#5dafcf; stroke:none;" d="M121 162L126 164L126 163L123 161L121 162z"/>
<path style="fill:#96a6bc; stroke:none;" d="M127 161L127 162L133 162L127 161M135 161L136 162L135 161M140 161L141 162L140 161M143 161L144 162L143 161z"/>
<path style="fill:#fafdfe; stroke:none;" d="M139 164L139 165L147 162L139 164z"/>
<path style="fill:#96a6bc; stroke:none;" d="M45 162L46 163L45 162z"/>
<path style="fill:#fafdfe; stroke:none;" d="M54.6667 162.333L55.3333 162.667L54.6667 162.333z"/>
<path style="fill:#5dafcf; stroke:none;" d="M55 164L58 164L57 162L55 164z"/>
<path style="fill:#96a6bc; stroke:none;" d="M58 162L59 163L58 162M82.3333 162.667L82.6667 163.333L82.3333 162.667z"/>
<path style="fill:#fafdfe; stroke:none;" d="M124 162L124 163L134 163L124 162z"/>
<path style="fill:#96a6bc; stroke:none;" d="M134 162L135 163L134 162M141 162L142 163L141 162M46 163L47 164L46 163M59 163L59 164L63 165L63 164L59 163z"/>
<path style="fill:#345371; stroke:none;" d="M62 163L62 164L77 165L62 163z"/>
<path style="fill:#96a6bc; stroke:none;" d="M67.6667 163.333L68.3333 163.667L67.6667 163.333z"/>
<path style="fill:#5dafcf; stroke:none;" d="M128 163L128 164L136 164L128 163z"/>
<path style="fill:#96a6bc; stroke:none;" d="M144 163L145 164L144 163M150 163L151 164L150 163z"/>
<path style="fill:#5dafcf; stroke:none;" d="M61 164L61 167L62 167L61 164z"/>
<path style="fill:#fafdfe; stroke:none;" d="M61 165L61 166L66 164L61 165z"/>
<path style="fill:#96a6bc; stroke:none;" d="M66.3333 164.667L66.6667 165.333L66.3333 164.667M69 164L70 165L69 164M72 164L73 165L72 164z"/>
<path style="fill:#5dafcf; stroke:none;" d="M143 164L138 165L138 166C140.34 166.664 143.533 167.228 143 164z"/>
<path style="fill:#30b7e4; stroke:none;" d="M145 168L149 164L145 168z"/>
<path style="fill:#fafdfe; stroke:none;" d="M67 165L68 166L67 165z"/>
<path style="fill:#96a6bc; stroke:none;" d="M68 165L69 166L68 165M73 165L74 166L73 165M139 165L140 166L139 165M62 166L63 167L62 166z"/>
<path style="fill:#5dafcf; stroke:none;" d="M63.6667 166.333L64.3333 166.667L63.6667 166.333M69 166L69 167L72 168L69 166z"/>
<path style="fill:#96a6bc; stroke:none;" d="M71 166L72 167L71 166M77 166L78 167L77 166z"/>
<path style="fill:#5dafcf; stroke:none;" d="M78 166L78 167L81 167L78 166z"/>
<path style="fill:#96a6bc; stroke:none;" d="M49 167L50 168L49 167M72 167L73 168L72 167M74 167L75 168L74 167z"/>
<path style="fill:#5dafcf; stroke:none;" d="M75 167L75 168L78 168L75 167z"/>
<path style="fill:#96a6bc; stroke:none;" d="M50 168L51 169L50 168z"/>
<path style="fill:#5dafcf; stroke:none;" d="M140 168L141 169L140 168z"/>
<path style="fill:#30b7e4; stroke:none;" d="M136 177L145 168L136 177z"/>
<path style="fill:#96a6bc; stroke:none;" d="M146 168L147 169L146 168M51 169L52 170L51 169M52 170L53 171L52 170z"/>
<path style="fill:#5dafcf; stroke:none;" d="M138 170L139 171L138 170z"/>
<path style="fill:#96a6bc; stroke:none;" d="M53 171L54 172L53 171M54 172L55 173L54 172z"/>
<path style="fill:#5dafcf; stroke:none;" d="M57 172L58 173L57 172M58 173L59 174L58 173M59.6667 174.333L60.3333 174.667L59.6667 174.333M137 174L138 175L137 174M139 174L140 175L139 174z"/>
<path style="fill:#96a6bc; stroke:none;" d="M140 174L141 175L140 174M58 175L59 176L58 175z"/>
<path style="fill:#5dafcf; stroke:none;" d="M61 175L62 176L61 175M133 178L137 178L137 175L133 178M138 175L139 176L138 175z"/>
<path style="fill:#96a6bc; stroke:none;" d="M59 176L60 177L59 176z"/>
<path style="fill:#5dafcf; stroke:none;" d="M62.6667 176.333L63.3333 176.667L62.6667 176.333M130 176L131 177L130 176M137 176L138 177L137 176M64 177L65 178L64 177z"/>
<path style="fill:#96a6bc; stroke:none;" d="M62 178L63 179L62 178z"/>
<path style="fill:#5dafcf; stroke:none;" d="M65.6667 178.333L66.3333 178.667L65.6667 178.333M127 178L128 179L127 178z"/>
<path style="fill:#96a6bc; stroke:none;" d="M135 178L136 179L135 178z"/>
<path style="fill:#5dafcf; stroke:none;" d="M64 179L65 180L64 179M67 179L68 180L67 179M129 179L129 182L126 181L117.167 185.167L87 188L87 189C103.515 189.709 117.164 189.658 132 181L132 180L129 179M133 179L134 180L133 179M69 180L70 181L69 180M124 180L125 181L124 180z"/>
<path style="fill:#30b7e4; stroke:none;" d="M128 180L128 182L130 180L128 180z"/>
<path style="fill:#96a6bc; stroke:none;" d="M132 180L133 181L132 180M67 181L68 182L67 181z"/>
<path style="fill:#5dafcf; stroke:none;" d="M71 181L72 182L71 181z"/>
<path style="fill:#96a6bc; stroke:none;" d="M69 182L70 183L69 182z"/>
<path style="fill:#5dafcf; stroke:none;" d="M73.6667 182.333L74.3333 182.667L73.6667 182.333z"/>
<path style="fill:#30b7e4; stroke:none;" d="M124 182L124 183L127 183L124 182z"/>
<path style="fill:#96a6bc; stroke:none;" d="M71 183L72 184L71 183M73 184L74 185L73 184z"/>
<path style="fill:#5dafcf; stroke:none;" d="M74 184L75 185L74 184M80 184L81 185L80 184M112 184L112 185L115 185L112 184z"/>
<path style="fill:#30b7e4; stroke:none;" d="M119 184L119 185L122 185L119 184z"/>
<path style="fill:#96a6bc; stroke:none;" d="M76 185L77 186L76 185z"/>
<path style="fill:#5dafcf; stroke:none;" d="M77 185L78 186L77 185z"/>
<path style="fill:#96a6bc; stroke:none;" d="M78.6667 186.333L79.3333 186.667L78.6667 186.333z"/>
<path style="fill:#5dafcf; stroke:none;" d="M80 186L81 187L80 186M88 186L88 187L106 187L88 186z"/>
<path style="fill:#30b7e4; stroke:none;" d="M113 186L113 187L116 187L113 186z"/>
<path style="fill:#96a6bc; stroke:none;" d="M82 187L83 188L82 187z"/>
<path style="fill:#5dafcf; stroke:none;" d="M83 187L83 188L86 188L83 187z"/>
<path style="fill:#96a6bc; stroke:none;" d="M86 188L87 189L86 188z"/>
<path style="fill:#30b7e4; stroke:none;" d="M93 188L93 189L104 189L93 188z"/>
<path style="fill:#96a6bc; stroke:none;" d="M91.6667 189.333L92.3333 189.667L91.6667 189.333z"/>
</svg>
